<svg width="24" height="24" viewBox="0 0 24 24" fill="none" xmlns="http://www.w3.org/2000/svg">
<path fill-rule="evenodd" clip-rule="evenodd" d="M4.61498 6.58979L10.9679 2.24634C11.4483 1.91789 12.0811 1.91789 12.5615 2.24634L18.9144 6.58979C19.2993 6.8529 19.5294 7.28903 19.5294 7.75521V16.4952C19.5294 16.9653 19.2954 17.4046 18.9052 17.6669L12.5522 21.9367C12.076 22.2568 11.4534 22.2568 10.9772 21.9367L4.62425 17.6669C4.23405 17.4046 4 16.9653 4 16.4952V7.75521C4 7.28903 4.23014 6.8529 4.61498 6.58979ZM5.01337 7.1725C4.82095 7.30406 4.70588 7.52212 4.70588 7.75521V16.4952C4.70588 16.7302 4.82291 16.9499 5.01801 17.081L11.3709 21.3509C11.6091 21.5109 11.9203 21.5109 12.1585 21.3509L18.5114 17.081C18.7065 16.9499 18.8235 16.7302 18.8235 16.4952V7.75521C18.8235 7.52212 18.7085 7.30406 18.516 7.1725L12.1631 2.82905C11.9229 2.66483 11.6065 2.66483 11.3663 2.82905L5.01337 7.1725Z" fill="#582709"/>
<path d="M4.70581 7.75539C4.70581 7.52229 4.82088 7.30423 5.0133 7.17267L11.3662 2.82923C11.6064 2.665 11.9228 2.665 12.163 2.82923L18.516 7.17267C18.7084 7.30423 18.8235 7.52229 18.8235 7.75539V16.4953C18.8235 16.7304 18.7064 16.9501 18.5113 17.0812L12.1584 21.351C11.9203 21.5111 11.609 21.5111 11.3709 21.351L5.01794 17.0812C4.82283 16.9501 4.70581 16.7304 4.70581 16.4953V7.75539Z" fill="url(#paint0_radial)"/>
<defs>
<radialGradient id="paint0_radial" cx="0" cy="0" r="1" gradientUnits="userSpaceOnUse" gradientTransform="translate(16.9151 0.40963) rotate(111.569) scale(25.3974 18.7955)">
<stop stop-color="#BC5B16"/>
<stop offset="0.411458" stop-color="#DE792B"/>
<stop offset="1" stop-color="#FEC34D"/>
</radialGradient>
</defs>
</svg>
