<svg width="24" height="24" viewBox="0 0 24 24" fill="none" xmlns="http://www.w3.org/2000/svg">
<path d="M4.02061 15.714C4.02061 15.714 3.38361 11.642 9.19161 6.643C9.47561 7 9.82961 7.357 10.1836 7.571C11.1746 7 11.8126 5.928 11.8126 4.786C11.8126 3.571 11.1746 2.571 10.1826 2C12.3086 2 15.7786 5.143 15.7786 10.142V10.785C15.2836 10.428 14.5746 10.214 13.9376 10.214C12.3796 10.214 10.9626 11.071 10.2546 12.357C11.0336 13.642 12.3796 14.499 13.9376 14.499C15.4956 14.499 17.0536 13.428 17.6916 11.999C18.2876 12.7237 18.7006 13.5812 18.8956 14.499C18.8956 14.499 19.8876 18.928 15.7786 20.999C11.6706 23.07 7.70461 21.285 7.70461 21.285C7.70461 21.285 11.5996 21.356 12.6626 18.285C12.6626 18.213 7.91661 18.928 4.02161 15.714H4.02061Z" fill="url(#paint0_radial)"/>
<defs>
<radialGradient id="paint0_radial" cx="0" cy="0" r="1" gradientUnits="userSpaceOnUse" gradientTransform="translate(9.31856 6.49998) rotate(66.5783) scale(18.5264 14.9793)">
<stop stop-color="#F8EEE5"/>
<stop offset="1" stop-color="#CBB9AB"/>
</radialGradient>
</defs>
</svg>
